<svg width="147" height="128" viewBox="0 0 147 128" fill="none" xmlns="http://www.w3.org/2000/svg">
<path d="M101.9 45.6794C101.9 43.2215 103.957 40.7802 107.987 38.9028C111.958 37.053 117.57 35.9 124 35.9C130.436 35.9 136.049 36.9994 140.018 38.8215C144.035 40.6659 146.1 43.1054 146.1 45.6794V117.321C146.1 119.778 144.043 122.22 140.013 124.097C136.042 125.947 130.43 127.1 124 127.1C117.57 127.1 111.958 125.947 107.987 124.097C103.957 122.22 101.9 119.778 101.9 117.321V45.6794Z" stroke="black" stroke-width="1.8"/>
<path d="M50.9 62.7929C50.9 60.3084 53.004 57.8373 57.1273 55.9372C61.1884 54.0658 66.9275 52.9 73.5 52.9C80.0725 52.9 85.8116 54.0658 89.8727 55.9372C93.996 57.8373 96.1 60.3084 96.1 62.7929V117.207C96.1 119.692 93.996 122.163 89.8727 124.063C85.8116 125.934 80.0725 127.1 73.5 127.1C66.9275 127.1 61.1884 125.934 57.1273 124.063C53.004 122.163 50.9 119.692 50.9 117.207V62.7929Z" stroke="black" stroke-width="1.8"/>
<path d="M0.9 80.8327C0.9 78.3248 2.96714 75.8468 6.99151 73.945C10.9609 72.0693 16.5721 70.9 23 70.9C29.5469 70.9 35.1566 72.0155 39.0939 73.8616C43.0692 75.7254 45.1 78.1991 45.1 80.8327V117.167C45.1 119.675 43.0329 122.153 39.0085 124.055C35.0391 125.931 29.4279 127.1 23 127.1C16.5721 127.1 10.9609 125.931 6.99151 124.055C2.96714 122.153 0.9 119.675 0.9 117.167V80.8327Z" stroke="black" stroke-width="1.8"/>
<path d="M23 60L55 28H96L123 1M123 1V15M123 1H109" stroke="black" stroke-width="1.8"/>
</svg>
