<svg width="127" height="135" viewBox="0 0 127 135" fill="none" xmlns="http://www.w3.org/2000/svg">
<path d="M100.542 0H83.1548V15.1685H0V25.0281H34.0179V34.736L23.2833 45.5056H18.8988V59.1573H51.4048V45.5056H47.0202L36.2857 34.736V25.0281H83.1548V94.8034H66.5238V72.0506H3.77976V135H83.1548H100.542H111.881V94.8034H100.542V25.0281H127V15.1685H100.542V0ZM85.4226 2.27528H98.2738V15.1685H85.4226V2.27528ZM49.1369 47.7809V56.882H21.1667V47.7809H49.1369ZM43.694 45.5056H26.4583L35.0762 36.8596L43.694 45.5056ZM109.613 97.0787V132.725H98.2738H85.4226H6.04762V74.3258H64.256V97.0787H109.613ZM85.4226 94.8034V25.0281H98.2738V94.8034H85.4226ZM124.732 17.4438V22.7528H2.26786V17.4438H124.732Z" fill="black"/>
</svg>
